<?xml version="1.0"?>
<svg xmlns="http://www.w3.org/2000/svg" xmlns:xlink="http://www.w3.org/1999/xlink" version="1.1" id="Capa_1" x="0px" y="0px" viewBox="0 0 512 512" style="enable-background:new 0 0 512 512;" xml:space="preserve" width="512px" height="512px" class=""><g><g>
	<g>
		<g>
			<path d="M498.837,44.288c-7.957-3.285-17.152-1.472-23.253,4.629L384,140.501v-33.835c0-35.285-28.715-64-64-64H64     c-35.285,0-64,28.715-64,64v170.667c0,35.285,28.715,64,64,64h93.483l-48.576,97.131c-5.269,10.539-0.981,23.36,9.557,28.629     c3.051,1.515,6.315,2.24,9.515,2.24c7.829,0,15.36-4.309,19.115-11.797L192,367.701l44.907,89.835     c3.755,7.488,11.285,11.797,19.115,11.797c3.2,0,6.464-0.725,9.515-2.24c10.539-5.269,14.827-18.091,9.557-28.629l-48.576-97.131     H320c35.285,0,64-28.715,64-64v-33.835l91.584,91.584c4.075,4.096,9.536,6.251,15.083,6.251c2.752,0,5.525-0.533,8.171-1.621     C506.816,336.405,512,328.619,512,320V64C512,55.381,506.816,47.595,498.837,44.288z M128,234.667c-35.285,0-64-28.715-64-64     s28.715-64,64-64s64,28.715,64,64S163.285,234.667,128,234.667z M469.333,268.501L392.832,192l76.501-76.501V268.501z" data-original="#000000" class="active-path" data-old_color="#000000" fill="#FFFFFF"/>
			<path d="M128,149.335c-11.776,0-21.333,9.579-21.333,21.333c0,11.755,9.557,21.333,21.333,21.333s21.333-9.579,21.333-21.333     C149.333,158.914,139.776,149.335,128,149.335z" data-original="#000000" class="active-path" data-old_color="#000000" fill="#FFFFFF"/>
		</g>
	</g>
</g></g> </svg>
